<svg width="24" height="24" viewBox="0 0 24 24" fill="none" xmlns="http://www.w3.org/2000/svg">
<path d="M20.6034 14.8346C19.174 18.9749 16.048 22.1039 11.9999 23.4732C7.95215 22.1039 4.82579 18.9749 3.39647 14.8346C3.21148 14.2986 3.05421 13.4289 2.92734 12.3296C2.80167 11.2406 2.7094 9.9606 2.64348 8.62375C2.52031 6.12606 2.49 3.4486 2.50265 1.4844C5.73938 0.830375 8.93072 0.5 12.0001 0.5C15.0695 0.5 18.2608 0.830373 21.4972 1.48439C21.5098 3.44843 21.4796 6.12581 21.3565 8.62349C21.2906 9.96033 21.1983 11.2403 21.0726 12.3294C20.9457 13.4288 20.7884 14.2985 20.6034 14.8346L21.076 14.9977L20.6034 14.8346Z" stroke="url(#paint0_linear_4121_3638)"/>
<path d="M11.8805 3L6.00049 15L11.8805 7.0396L18.0005 15L11.8805 3Z" fill="url(#paint1_linear_4121_3638)"/>
<path d="M5.00049 7C7.07005 8.55641 12.7674 10.7354 19.0005 7C16.6063 10.0185 10.4544 14.2444 5.00049 7Z" fill="url(#paint2_linear_4121_3638)"/>
<defs>
<linearGradient id="paint0_linear_4121_3638" x1="11.9999" y1="0" x2="11.9999" y2="24" gradientUnits="userSpaceOnUse">
<stop offset="0.705" stop-color="white"/>
<stop offset="1" stop-color="#999999"/>
</linearGradient>
<linearGradient id="paint1_linear_4121_3638" x1="12.0005" y1="3" x2="12.0005" y2="15" gradientUnits="userSpaceOnUse">
<stop offset="0.705" stop-color="white"/>
<stop offset="1" stop-color="#999999"/>
</linearGradient>
<linearGradient id="paint2_linear_4121_3638" x1="12.0005" y1="7" x2="12.0005" y2="11" gradientUnits="userSpaceOnUse">
<stop offset="0.705" stop-color="white"/>
<stop offset="1" stop-color="#999999"/>
</linearGradient>
</defs>
</svg>
