<svg width="20.000000" height="32.000000" viewBox="0 0 20 32" fill="none" xmlns="http://www.w3.org/2000/svg" xmlns:xlink="http://www.w3.org/1999/xlink">
	<desc>
			Created with Pixso.
	</desc>
	<defs/>
	<path id="path" d="M18.64 0L8.23 0C8.16 0 8.09 0.02 8.05 0.07C7.97 0.16 8 0.26 8.01 0.3L8.06 0.37C8.6 1.18 9.66 3.02 10.04 5.49C10.16 6.19 10.37 6.87 10.69 7.5C11.33 8.74 11.63 9.91 11.75 11.05C11.82 11.82 11.71 12.6 11.66 12.9C11.46 14.24 11.08 15.12 10.22 16.47C9.21 18.05 8.41 19.13 8.27 20.71C8.19 21.57 8.37 22.39 8.55 22.95C8.73 23.47 8.98 24.04 9.32 24.65C9.32 24.65 9.44 24.88 9.47 24.91C9.53 25 9.63 25.06 9.75 25.06C9.78 25.06 9.81 25.05 9.84 25.04C9.92 25.02 9.98 24.96 10.02 24.89L10.08 24.78C10.11 24.74 10.14 24.69 10.17 24.63C10.56 23.96 11.69 22.15 12.53 21.17C12.92 20.66 13.51 20.24 13.51 20.24C13.78 20.03 14.14 19.86 14.73 19.82C15.49 19.77 16.11 20 16.76 20.72C17.31 21.35 18.15 23.04 18.62 23.91C18.67 24 18.9 24.44 18.49 24.67C18.22 24.82 17.93 24.69 17.66 24.3C17.61 24.22 16.25 22.45 15.83 22.02C15.81 22 15.78 21.97 15.75 21.94C15.59 21.8 15.39 21.72 15.18 21.69C15.13 21.68 15.09 21.68 15.05 21.68C15.01 21.68 14.98 21.68 14.94 21.68C14.92 21.68 14.91 21.69 14.89 21.69C14.87 21.69 14.86 21.7 14.84 21.7C14.82 21.7 14.8 21.71 14.77 21.72C14.76 21.72 14.75 21.72 14.74 21.72C14.71 21.73 14.69 21.74 14.67 21.75C14.64 21.76 14.59 21.78 14.57 21.79C14.47 21.84 14.37 21.91 14.3 21.98C14.3 21.98 14.23 22.05 14.22 22.07C13.92 22.42 13.05 23.61 12.5 25.02C12.31 25.5 12.08 26.23 12.08 26.27C11.75 27.62 12 28.17 12.96 29.23C13 29.26 14.58 30.85 15.37 31.57C15.67 31.84 16.07 32 16.49 32L18.65 32C19.39 32 20 31.41 20 30.69L20 1.3C19.99 0.58 19.39 0 18.64 0Z" fill="#FFFFFF" fill-opacity="1.000000" fill-rule="nonzero"/>
	<path id="path" d="M11.94 31.64C10.84 30.37 7.19 25.96 6.62 22.45C6.44 21.39 6.5 20.49 6.7 19.7C6.71 19.67 6.71 19.63 6.72 19.6C7 18.26 8.41 16.35 8.98 15.49C9.55 14.63 10.01 13.61 10.07 12.51C10.1 11.92 10 11.33 9.87 10.86C9.86 10.83 9.85 10.79 9.84 10.77C9.83 10.74 9.83 10.72 9.82 10.69C9.81 10.67 9.8 10.65 9.8 10.62C9.73 10.41 9.66 10.22 9.61 10.1C9.48 9.79 9.37 9.57 9.33 9.5C9.33 9.5 9.29 9.43 9.28 9.4C9.22 9.31 9.12 9.25 9.01 9.25C8.89 9.25 8.8 9.31 8.74 9.4C8.29 10.05 7.81 10.8 6.98 11.62C6.63 11.97 6.13 12.42 5.24 12.44C4.5 12.46 3.91 12.2 3.31 11.46C2.8 10.82 1.96 8.87 1.54 7.98C1.49 7.88 1.29 7.44 1.69 7.23C1.96 7.08 2.24 7.23 2.48 7.63C2.85 8.23 3.74 9.57 4.23 10.16C4.56 10.55 5.21 10.82 5.75 10.29C5.97 10.09 7.1 8.61 7.8 6.91C8.03 6.36 8.3 5.56 8.05 4.53C7.62 2.81 6.36 1.26 5.57 0.48C5.55 0.46 5.53 0.43 5.5 0.42C5.22 0.16 4.85 0 4.46 0L1.3 0C0.58 0 0 0.58 0 1.3L0 30.69C0 31.41 0.58 32 1.3 32L11.76 32C11.95 32 12.07 31.78 11.94 31.64Z" fill="#FFFFFF" fill-opacity="1.000000" fill-rule="nonzero"/>
</svg>
